<?xml version="1.0" standalone="no"?>
<!DOCTYPE svg PUBLIC "-//W3C//DTD SVG 20010904//EN"
 "http://www.w3.org/TR/2001/REC-SVG-20010904/DTD/svg10.dtd">
<svg version="1.0" xmlns="http://www.w3.org/2000/svg"
 width="640.000000pt" height="640.000000pt" viewBox="0 0 640.000000 640.000000"
 preserveAspectRatio="xMidYMid meet">
<metadata>
Created by potrace 1.14, written by Peter Selinger 2001-2017
</metadata>
<g transform="translate(0.000000,640.000000) scale(0.100000,-0.100000)"
fill="#000000" stroke="none">
<path d="M2166 5698 c-55 -4 -102 -12 -105 -17 -4 -5 -26 -11 -50 -15 -25 -3
-47 -10 -50 -14 -12 -18 -50 -32 -56 -22 -3 5 -1 10 6 10 7 0 10 2 8 5 -3 2
-15 2 -27 -2 -21 -5 -21 -6 -5 -18 10 -7 33 -11 53 -9 19 2 8 -3 -25 -10 -74
-17 -153 -45 -161 -57 -3 -5 -11 -9 -19 -9 -8 0 -41 -16 -74 -35 -45 -27 -59
-40 -54 -52 4 -10 2 -14 -4 -10 -6 4 -14 -1 -17 -10 -6 -15 -8 -15 -16 -3 -8
13 -10 12 -10 -3 0 -9 -6 -16 -12 -15 -8 2 -12 -5 -10 -17 l4 -20 -16 20 c-8
11 -16 15 -16 8 0 -6 5 -15 10 -18 6 -4 8 -11 5 -16 -10 -15 0 -10 26 12 68
60 217 144 289 163 14 4 -9 -9 -50 -29 -41 -20 -106 -57 -145 -83 -85 -56
-279 -247 -269 -263 4 -7 3 -9 -4 -6 -5 4 -24 -12 -41 -35 -17 -24 -34 -48
-39 -53 -26 -31 -30 -49 -14 -63 15 -12 14 -12 -4 -3 -21 10 -34 6 -34 -10 0
-4 8 -10 18 -12 14 -4 13 -5 -3 -6 -16 -1 -21 -7 -20 -28 1 -16 -2 -38 -6 -49
-4 -12 -3 -26 2 -31 9 -9 -6 -69 -22 -87 -15 -16 -10 13 7 46 17 33 6 52 -24
40 -11 -4 -13 -1 -7 9 7 12 6 12 -6 0 -11 -10 -11 -15 -1 -18 6 -3 12 -9 12
-15 0 -6 -7 -8 -15 -4 -11 4 -15 -1 -15 -17 1 -21 2 -21 25 6 14 15 25 22 25
15 0 -18 -45 -69 -54 -61 -3 3 -6 1 -6 -4 0 -6 6 -14 13 -17 6 -3 1 -3 -12 0
-19 5 -23 3 -18 -10 4 -9 1 -16 -5 -16 -6 0 -8 -3 -5 -6 4 -4 20 -1 37 6 24
10 29 17 25 34 -6 20 -5 20 9 3 8 -10 16 -15 19 -10 2 4 19 35 37 68 69 126
78 142 123 205 52 73 117 149 117 137 0 -5 -26 -41 -57 -80 -88 -109 -100
-129 -174 -276 -38 -75 -69 -132 -69 -128 0 5 5 17 11 29 13 24 5 35 -15 19
-8 -7 -12 -19 -9 -28 5 -13 3 -13 -15 -4 -11 6 -25 11 -31 11 -16 0 -33 -69
-27 -105 4 -19 2 -36 -4 -40 -5 -3 -10 -11 -10 -16 0 -6 4 -7 10 -4 6 4 7 -2
1 -17 -4 -13 -7 -38 -6 -56 1 -20 -2 -31 -9 -29 -6 3 -10 10 -8 16 1 7 -2 10
-8 6 -15 -9 -12 -35 4 -35 9 0 14 -9 13 -20 -1 -15 -6 -19 -22 -14 -20 6 -20
6 0 -10 19 -16 19 -16 1 -14 -10 2 -21 -3 -23 -9 -3 -8 4 -13 16 -13 25 0 27
-13 6 -30 -8 -7 -15 -17 -15 -23 0 -6 6 -2 14 9 8 10 18 16 22 11 4 -4 -3 -18
-16 -32 -21 -23 -22 -28 -12 -64 15 -49 16 -72 2 -51 -9 13 -10 13 -10 0 0 -9
6 -22 13 -29 9 -11 9 -14 0 -18 -9 -3 -10 -10 -3 -22 5 -10 7 -21 4 -23 -2 -3
-5 -31 -5 -62 -1 -31 -5 -56 -10 -56 -5 0 -9 -5 -9 -11 0 -5 4 -8 9 -5 5 3 11
-5 13 -19 3 -14 2 -25 -2 -25 -12 0 -9 -64 3 -79 9 -12 9 -13 0 -7 -8 4 -13 1
-13 -9 0 -9 5 -13 10 -10 15 9 12 -12 -5 -28 -8 -8 -12 -17 -9 -20 3 -3 7 -58
9 -122 1 -87 6 -119 16 -126 10 -6 10 -9 2 -9 -17 0 -17 -92 -1 -108 9 -9 9
-12 -1 -12 -7 0 -10 -7 -7 -18 6 -18 13 -68 20 -153 3 -25 7 -64 10 -85 3 -22
7 -68 11 -104 12 -139 39 -329 51 -372 3 -11 11 -15 22 -12 16 5 16 5 0 -8
-16 -14 -15 -24 12 -174 27 -153 38 -205 45 -231 3 -8 18 -8 60 3 38 10 61 12
69 5 12 -10 81 1 114 18 9 5 61 24 114 42 58 20 112 45 134 64 33 28 38 38 42
87 4 50 -11 207 -39 393 -16 109 -17 112 -56 136 -21 13 -40 26 -43 29 -3 3
-39 35 -80 70 -41 36 -83 74 -93 85 -10 11 -35 38 -56 60 -64 69 -119 158
-137 220 -27 95 -71 296 -65 292 98 -54 127 -62 226 -62 87 0 107 3 156 26 31
15 75 43 97 64 45 40 99 138 108 196 5 31 12 40 37 48 42 15 123 14 155 -3 59
-30 76 -61 83 -147 12 -140 84 -248 205 -310 65 -32 73 -34 173 -34 94 0 113
3 163 27 78 36 139 95 179 175 32 64 34 72 34 174 l0 108 33 15 c18 9 37 16
41 16 5 0 12 -30 16 -67 3 -38 17 -124 30 -193 13 -69 26 -155 29 -192 l5 -66
-59 -79 c-78 -106 -244 -253 -368 -328 l-64 -38 7 -71 c7 -75 58 -405 76 -493
15 -75 61 -118 180 -167 104 -43 209 -77 209 -68 0 3 6 0 13 -6 11 -12 45
-185 66 -347 6 -38 15 -151 21 -250 14 -223 33 -365 69 -509 42 -162 86 -271
122 -296 l29 -21 -21 48 c-46 108 -91 286 -124 488 -43 268 -49 325 -35 325
16 0 12 21 -7 36 -17 12 -16 13 5 11 15 -1 22 -8 22 -22 1 -11 3 -38 5 -60 4
-30 2 -35 -4 -20 -9 19 -10 19 -10 -2 -1 -13 5 -23 12 -23 8 0 19 -36 31 -108
10 -59 33 -154 52 -211 36 -108 44 -127 99 -246 41 -90 48 -112 36 -120 -6 -3
-24 18 -41 47 -54 92 -21 9 53 -132 92 -177 204 -327 248 -333 8 -2 20 -6 27
-11 26 -16 24 4 -4 46 -16 24 -32 45 -35 48 -17 15 -94 139 -113 183 -79 179
-142 436 -185 752 -48 356 -72 621 -45 509 12 -52 97 -207 156 -285 114 -151
246 -253 474 -366 199 -99 307 -176 473 -341 101 -100 156 -164 174 -199 15
-29 49 -128 77 -220 50 -169 68 -202 111 -203 8 0 20 -5 27 -12 9 -9 12 -3 13
27 l2 40 6 -40 c7 -43 17 -65 30 -65 10 0 4 71 -15 164 -7 38 -12 71 -10 73 2
2 24 -59 50 -134 l46 -138 51 -23 c28 -12 55 -22 61 -22 10 0 4 113 -16 288
-12 100 -6 129 15 75 22 -57 69 -255 75 -320 8 -85 15 -98 64 -123 39 -20 52
-16 28 9 -11 10 -9 11 6 5 18 -7 19 -3 13 62 -16 161 -97 431 -200 662 -30 67
-52 122 -48 121 11 -1 130 -154 172 -225 79 -129 157 -322 204 -499 l23 -90
38 4 c22 1 39 4 40 4 0 1 -3 40 -6 87 -13 144 -74 290 -203 480 -39 58 -63 99
-54 91 11 -8 17 -9 17 -3 0 6 -9 16 -20 22 -11 6 -20 19 -20 28 0 24 -102 222
-158 306 -56 84 -138 187 -226 281 -40 42 -72 88 -82 115 -91 248 -191 478
-469 1070 -88 188 -219 580 -300 895 -146 573 -267 955 -376 1193 -16 35 -29
66 -29 68 0 22 -83 178 -149 279 -40 63 -146 186 -192 225 -93 78 -279 180
-423 231 -128 47 -179 58 -296 65 -47 3 -94 6 -105 8 -11 1 -65 -1 -119 -6z
m168 -75 c-27 -26 -42 -39 -34 -28 24 35 73 85 78 80 3 -2 -17 -26 -44 -52z
m-221 40 c-7 -2 -21 -2 -30 0 -10 3 -4 5 12 5 17 0 24 -2 18 -5z m44 -9 c-3
-3 -12 -4 -19 -1 -8 3 -5 6 6 6 11 1 17 -2 13 -5z m38 -14 c3 -6 -1 -7 -9 -4
-18 7 -21 14 -7 14 6 0 13 -4 16 -10z m-122 -57 c-13 -2 -33 -2 -45 0 -13 2
-3 4 22 4 25 0 35 -2 23 -4z m-90 -10 c-7 -2 -21 -2 -30 0 -10 3 -4 5 12 5 17
0 24 -2 18 -5z m160 0 c-7 -2 -19 -2 -25 0 -7 3 -2 5 12 5 14 0 19 -2 13 -5z
m-228 -13 c-11 -5 -27 -9 -35 -9 -9 0 -8 4 5 9 11 5 27 9 35 9 9 0 8 -4 -5 -9z
m286 -11 l24 -20 -30 17 c-39 24 -40 24 -28 24 6 0 21 -9 34 -21z m69 -9 c-6
-11 -13 -20 -16 -20 -2 0 0 9 6 20 6 11 13 20 16 20 2 0 0 -9 -6 -20z m570
-26 c0 -2 -9 0 -20 6 -11 6 -20 13 -20 16 0 2 9 0 20 -6 11 -6 20 -13 20 -16z
m-1195 -44 c-10 -11 -21 -18 -23 -15 -3 3 3 12 14 20 27 20 30 18 9 -5z m363
13 c-10 -2 -28 -2 -40 0 -13 2 -5 4 17 4 22 1 32 -1 23 -4z m85 0 c-7 -2 -21
-2 -30 0 -10 3 -4 5 12 5 17 0 24 -2 18 -5z m522 -3 c3 -6 -1 -7 -9 -4 -18 7
-21 14 -7 14 6 0 13 -4 16 -10z m150 -10 c3 -6 -1 -7 -9 -4 -18 7 -21 14 -7
14 6 0 13 -4 16 -10z m-870 -10 c-27 -12 -43 -12 -25 0 8 5 22 9 30 9 10 0 8
-3 -5 -9z m270 0 c3 -6 -1 -7 -9 -4 -18 7 -21 14 -7 14 6 0 13 -4 16 -10z
m811 -67 c36 -43 70 -87 76 -98 13 -25 5 -17 -67 73 -32 40 -67 80 -79 88 -11
7 -15 14 -9 14 7 0 42 -35 79 -77z m-156 41 c0 -2 -9 0 -20 6 -11 6 -20 13
-20 16 0 2 9 0 20 -6 11 -6 20 -13 20 -16z m-611 -18 c-3 -3 -11 5 -18 17 -13
21 -12 21 5 5 10 -10 16 -20 13 -22z m675 -35 c-3 -3 -15 6 -27 18 l-22 24 27
-19 c14 -10 24 -21 22 -23z m-807 3 c-3 -3 -12 -4 -19 -1 -8 3 -5 6 6 6 11 1
17 -2 13 -5z m-87 -29 c-14 -8 -32 -14 -40 -14 -8 0 -1 6 15 14 40 18 57 18
25 0z m835 -5 c10 -11 16 -20 13 -20 -3 0 -13 9 -23 20 -10 11 -16 20 -13 20
3 0 13 -9 23 -20z m-250 -20 c3 -6 -1 -7 -9 -4 -18 7 -21 14 -7 14 6 0 13 -4
16 -10z m340 -60 c33 -33 57 -60 54 -60 -2 0 -31 27 -64 60 -33 33 -57 60 -54
60 2 0 31 -27 64 -60z m96 -24 c20 -35 -6 -8 -40 41 l-33 48 31 -35 c17 -19
36 -43 42 -54z m-1121 69 c0 -2 -10 -9 -22 -15 -22 -11 -22 -10 -4 4 21 17 26
19 26 11z m511 -12 c13 -16 12 -17 -3 -4 -17 13 -22 21 -14 21 2 0 10 -8 17
-17z m-831 -6 c0 -1 -17 -18 -37 -37 -37 -35 -37 -24 0 18 17 19 37 29 37 19z
m40 -11 c0 -2 -8 -10 -17 -17 -16 -13 -17 -12 -4 4 13 16 21 21 21 13z m250
-20 c0 -2 -8 -10 -17 -17 -16 -13 -17 -12 -4 4 13 16 21 21 21 13z m712 -109
c57 -67 128 -162 128 -171 0 -4 -26 28 -59 71 -32 44 -89 110 -127 148 -42 42
-53 56 -28 36 23 -17 61 -55 86 -84z m-234 78 c-3 -3 -9 2 -12 12 -6 14 -5 15
5 6 7 -7 10 -15 7 -18z m-563 5 c-3 -5 -20 -19 -38 -30 -32 -22 -32 -22 3 9
37 32 45 37 35 21z m1325 -20 c6 -11 8 -20 6 -20 -3 0 -10 9 -16 20 -6 11 -8
20 -6 20 3 0 10 -9 16 -20z m-1610 6 c0 -9 -47 -56 -56 -56 -4 0 5 14 21 30
28 30 35 34 35 26z m1231 -23 c13 -16 12 -17 -3 -4 -10 7 -18 15 -18 17 0 8 8
3 21 -13z m340 -28 c7 -13 3 -12 -10 5 -11 14 -21 30 -21 35 0 11 14 -7 31
-40z m-190 8 c13 -16 12 -17 -3 -4 -10 7 -18 15 -18 17 0 8 8 3 21 -13z m-497
-9 c3 -8 2 -12 -4 -9 -6 3 -10 10 -10 16 0 14 7 11 14 -7z m776 -46 c32 -59
23 -58 -10 1 -17 30 -30 57 -30 60 0 8 17 -17 40 -61z m-385 22 c10 -11 16
-20 13 -20 -3 0 -13 9 -23 20 -10 11 -16 20 -13 20 3 0 13 -9 23 -20z m260 -6
c9 -15 12 -23 6 -20 -11 7 -35 46 -28 46 3 0 12 -12 22 -26z m-1635 -44 c-40
-48 -59 -64 -44 -37 17 29 77 98 81 93 3 -3 -13 -28 -37 -56z m-34 13 c-10
-10 -19 5 -10 18 6 11 8 11 12 0 2 -7 1 -15 -2 -18z m565 -129 c-16 -82 -32
-168 -35 -192 -3 -24 -8 -47 -11 -53 -4 -5 0 -9 7 -9 8 0 9 -3 3 -8 -6 -4 -11
-18 -11 -32 0 -14 -3 -70 -8 -125 l-7 -101 78 -17 c80 -18 204 -40 281 -51
l42 -6 1 282 1 283 32 -162 c35 -170 76 -313 107 -374 17 -35 22 -37 106 -54
48 -10 113 -24 144 -31 88 -21 92 -20 85 24 -11 77 -17 227 -8 212 5 -8 24
-69 42 -135 36 -133 54 -175 74 -175 26 0 36 -27 41 -111 l6 -84 -45 -27 -45
-27 -22 45 c-30 59 -96 127 -156 159 -81 44 7 18 146 -42 30 -13 -10 37 -54
67 -110 76 -228 105 -362 90 -61 -7 -143 -40 -143 -58 0 -4 41 -7 90 -6 50 0
84 -3 78 -8 -7 -4 -20 -8 -28 -8 -33 0 -137 -59 -179 -101 -41 -41 -91 -127
-91 -156 0 -18 -3 -17 -62 20 -46 28 -62 32 -118 31 -36 0 -74 -4 -86 -8 -19
-7 -22 -3 -27 44 -14 115 -91 221 -201 275 -95 46 -221 46 -333 -1 -7 -3 1 23
17 58 17 35 30 69 30 76 0 8 18 12 59 12 l59 0 0 33 c1 58 69 268 92 282 5 3
10 15 10 26 0 10 4 19 9 19 5 0 16 16 26 36 20 42 113 182 127 190 5 3 -11
-24 -37 -61 -74 -109 -109 -194 -141 -345 -25 -118 -31 -190 -10 -111 l12 45
15 -33 16 -32 12 58 c14 71 83 294 89 288 2 -2 -8 -67 -22 -144 -15 -77 -26
-152 -24 -168 3 -25 4 -26 19 -10 16 15 17 15 21 -8 6 -29 -1 -41 -27 -47 -28
-6 45 -26 110 -30 l49 -3 17 95 c9 52 30 148 47 212 31 118 112 351 119 344 2
-2 -9 -71 -26 -152z m413 140 c3 -8 2 -12 -4 -9 -6 3 -10 10 -10 16 0 14 7 11
14 -7z m76 -29 c0 -5 -5 -3 -10 5 -5 8 -10 20 -10 25 0 6 5 3 10 -5 5 -8 10
-19 10 -25z m-790 22 c0 -2 -17 -19 -37 -38 l-38 -34 34 38 c33 34 41 42 41
34z m819 -92 c0 -5 -6 1 -14 15 -8 14 -14 30 -14 35 0 6 6 -1 14 -15 8 -14 14
-29 14 -35z m696 24 c9 -17 15 -33 13 -35 -3 -2 -12 12 -21 31 -21 43 -13 47
8 4z m-269 -61 c14 -27 24 -51 22 -53 -2 -2 -17 23 -34 55 -17 33 -27 57 -22
54 4 -3 20 -28 34 -56z m344 7 c0 -5 -5 -3 -10 5 -5 8 -10 20 -10 25 0 6 5 3
10 -5 5 -8 10 -19 10 -25z m-1680 21 c0 -2 -8 -10 -17 -17 -16 -13 -17 -12 -4
4 13 16 21 21 21 13z m930 -41 c0 -5 -5 -3 -10 5 -5 8 -10 20 -10 25 0 6 5 3
10 -5 5 -8 10 -19 10 -25z m315 -110 c45 -82 79 -155 71 -155 -2 0 -18 30 -35
66 -17 37 -47 93 -66 124 -19 32 -35 62 -35 66 0 12 13 -8 65 -101z m-1497 75
c-11 -18 -28 -27 -28 -16 0 6 30 36 36 36 2 0 -1 -9 -8 -20z m1772 -24 c0 -12
-5 -7 -19 24 -11 24 -11 24 3 6 9 -11 16 -24 16 -30z m-1601 -16 c-12 -22 -24
-38 -26 -36 -4 4 37 76 44 76 2 0 -6 -18 -18 -40z m1041 -5 c0 -5 -5 -3 -10 5
-5 8 -10 20 -10 25 0 6 5 3 10 -5 5 -8 10 -19 10 -25z m414 9 c3 -8 2 -12 -4
-9 -6 3 -10 10 -10 16 0 14 7 11 14 -7z m306 -19 c0 -5 -5 -3 -10 5 -5 8 -10
20 -10 25 0 6 5 3 10 -5 5 -8 10 -19 10 -25z m-791 -25 c0 -9 -4 -8 -9 5 -5
11 -9 27 -9 35 0 9 4 8 9 -5 5 -11 9 -27 9 -35z m-1162 25 c0 -8 -4 -12 -9 -9
-4 3 -8 9 -8 15 0 5 4 9 8 9 5 0 9 -7 9 -15z m1682 -60 c0 -5 -6 1 -14 15 -8
14 -14 30 -14 35 0 6 6 -1 14 -15 8 -14 14 -29 14 -35z m331 20 c0 -5 -5 -3
-10 5 -5 8 -10 20 -10 25 0 6 5 3 10 -5 5 -8 10 -19 10 -25z m-1173 3 c-3 -8
-6 -5 -6 6 -1 11 2 17 5 13 3 -3 4 -12 1 -19z m-343 -64 c-20 -81 -21 -92 -23
-204 -1 -49 -5 -80 -10 -72 -4 7 -14 12 -21 10 -7 -2 -13 7 -15 20 -3 35 14
132 30 174 8 21 12 45 9 55 -5 15 -4 16 5 3 9 -13 11 -12 11 6 0 25 20 87 26
81 3 -2 -3 -35 -12 -73z m243 29 c-3 -10 -5 -2 -5 17 0 19 2 27 5 18 2 -10 2
-26 0 -35z m643 12 c0 -5 -5 -3 -10 5 -5 8 -10 20 -10 25 0 6 5 3 10 -5 5 -8
10 -19 10 -25z m-133 3 c-3 -8 -6 -5 -6 6 -1 11 2 17 5 13 3 -3 4 -12 1 -19z
m-80 -10 c-3 -8 -6 -5 -6 6 -1 11 2 17 5 13 3 -3 4 -12 1 -19z m684 -34 c5
-15 8 -29 5 -31 -2 -2 -8 10 -14 26 -13 38 -5 41 9 5z m-561 -75 c12 -44 19
-83 17 -85 -2 -3 -12 24 -21 58 -8 35 -19 73 -22 86 -4 12 -4 22 -1 22 3 0 15
-36 27 -81z m-893 49 c-3 -8 -6 -5 -6 6 -1 11 2 17 5 13 3 -3 4 -12 1 -19z
m1022 -48 c0 -8 -7 1 -14 20 -18 46 -17 64 0 25 8 -16 14 -37 14 -45z m-232
38 c-3 -8 -6 -5 -6 6 -1 11 2 17 5 13 3 -3 4 -12 1 -19z m850 0 c-3 -8 -6 -5
-6 6 -1 11 2 17 5 13 3 -3 4 -12 1 -19z m-1941 -54 c-8 -21 -15 -34 -15 -28
-1 15 20 76 25 71 2 -2 -2 -21 -10 -43z m1788 -4 c5 -17 4 -20 -2 -10 -5 8
-13 26 -16 40 -5 17 -4 20 2 10 5 -8 13 -26 16 -40z m136 15 c0 -5 -5 -3 -10
5 -5 8 -10 20 -10 25 0 6 5 3 10 -5 5 -8 10 -19 10 -25z m-823 3 c-3 -8 -6 -5
-6 6 -1 11 2 17 5 13 3 -3 4 -12 1 -19z m532 -28 c0 -10 -3 -8 -9 5 -12 27
-12 43 0 25 5 -8 9 -22 9 -30z m-1844 10 c3 -5 -1 -10 -10 -10 -9 0 -13 5 -10
10 3 6 8 10 10 10 2 0 7 -4 10 -10z m952 -37 c-3 -10 -5 -4 -5 12 0 17 2 24 5
18 2 -7 2 -21 0 -30z m370 15 c-3 -8 -6 -5 -6 6 -1 11 2 17 5 13 3 -3 4 -12 1
-19z m241 -73 c0 -11 -6 3 -14 30 -7 28 -13 55 -13 60 2 17 27 -69 27 -90z
m-1572 60 c-8 -8 -18 -15 -22 -15 -3 0 -1 7 6 15 7 8 17 15 22 15 5 0 3 -7 -6
-15z m496 -17 c-8 -8 -9 -4 -5 13 4 13 8 18 11 10 2 -7 -1 -18 -6 -23z m1695
0 c-3 -8 -6 -5 -6 6 -1 11 2 17 5 13 3 -3 4 -12 1 -19z m-817 -150 c0 -10 -5
-18 -11 -18 -5 0 -8 4 -5 9 4 5 -1 41 -9 81 -8 39 -15 77 -14 83 1 16 38 -133
39 -155z m-513 65 c-2 -16 -4 -3 -4 27 0 30 2 43 4 28 2 -16 2 -40 0 -55z
m1340 45 c-3 -8 -6 -5 -6 6 -1 11 2 17 5 13 3 -3 4 -12 1 -19z m-2181 -29
c-13 -28 -15 -30 -16 -11 0 13 6 29 13 36 18 21 19 13 3 -25z m171 19 c-3 -8
-6 -5 -6 6 -1 11 2 17 5 13 3 -3 4 -12 1 -19z m1250 0 c-3 -8 -6 -5 -6 6 -1
11 2 17 5 13 3 -3 4 -12 1 -19z m770 -30 c-3 -8 -6 -5 -6 6 -1 11 2 17 5 13 3
-3 4 -12 1 -19z m-1239 -29 c-3 -20 -5 -19 -9 9 -3 20 -2 29 4 23 5 -5 7 -19
5 -32z m491 -13 c6 -22 6 -35 1 -30 -4 5 -11 27 -14 49 -7 45 -2 38 13 -19z
m298 2 c-3 -8 -6 -5 -6 6 -1 11 2 17 5 13 3 -3 4 -12 1 -19z m-1755 -10 c-7
-7 -12 -8 -12 -2 0 14 12 26 19 19 2 -3 -1 -11 -7 -17z m1895 0 c-3 -8 -6 -5
-6 6 -1 11 2 17 5 13 3 -3 4 -12 1 -19z m182 -43 c0 -5 -4 -3 -9 5 -5 8 -9 22
-9 30 0 16 17 -16 18 -35z m-1212 13 c-3 -8 -6 -5 -6 6 -1 11 2 17 5 13 3 -3
4 -12 1 -19z m900 -10 c-3 -7 -5 -2 -5 12 0 14 2 19 5 13 2 -7 2 -19 0 -25z
m140 0 c-3 -8 -6 -5 -6 6 -1 11 2 17 5 13 3 -3 4 -12 1 -19z m342 -133 c0 -11
-9 14 -19 55 -10 41 -15 79 -12 85 6 10 31 -103 31 -140z m-754 45 c3 -6 2
-10 -3 -10 -12 0 -22 36 -21 75 1 25 3 23 10 -13 4 -23 11 -47 14 -52z m-118
48 c-3 -7 -5 -2 -5 12 0 14 2 19 5 13 2 -7 2 -19 0 -25z m790 10 c-3 -8 -6 -5
-6 6 -1 11 2 17 5 13 3 -3 4 -12 1 -19z m-250 -20 c-3 -7 -5 -2 -5 12 0 14 2
19 5 13 2 -7 2 -19 0 -25z m-140 -10 c-3 -7 -5 -2 -5 12 0 14 2 19 5 13 2 -7
2 -19 0 -25z m-1790 -20 c-3 -8 -6 -5 -6 6 -1 11 2 17 5 13 3 -3 4 -12 1 -19z
m2190 0 c-3 -8 -6 -5 -6 6 -1 11 2 17 5 13 3 -3 4 -12 1 -19z m-238 -33 l0
-20 -9 20 c-5 11 -9 27 -9 35 -1 13 0 13 9 0 5 -8 9 -24 9 -35z m-1548 -5 c58
-18 71 -27 137 -100 40 -44 78 -95 83 -112 13 -47 10 -207 -5 -249 -33 -93
-147 -185 -246 -199 -114 -16 -274 26 -308 80 -8 12 -17 81 -23 163 -18 266 6
354 110 400 31 14 65 27 76 30 46 11 117 6 176 -13z m1796 -17 c-3 -10 -5 -4
-5 12 0 17 2 24 5 18 2 -7 2 -21 0 -30z m-400 -5 c-3 -7 -5 -2 -5 12 0 14 2
19 5 13 2 -7 2 -19 0 -25z m-1803 -38 c0 -28 -5 -55 -10 -60 -5 -5 -8 9 -6 38
6 83 18 99 16 22z m1963 -2 c-3 -7 -5 -2 -5 12 0 14 2 19 5 13 2 -7 2 -19 0
-25z m-129 -133 c0 -11 -6 7 -14 40 -7 33 -13 74 -13 90 1 17 7 -1 14 -40 7
-38 13 -79 13 -90z m473 117 c57 -37 75 -59 94 -111 28 -81 12 -231 -32 -301
-36 -57 -186 -201 -197 -189 -5 5 -56 415 -63 508 -5 73 -5 77 18 87 90 43
120 43 180 6z m-334 -24 c-3 -8 -6 -5 -6 6 -1 11 2 17 5 13 3 -3 4 -12 1 -19z
m-2023 -4 c3 -8 2 -12 -4 -9 -6 3 -10 10 -10 16 0 14 7 11 14 -7z m1460 -21
c69 -17 73 -20 153 -102 99 -104 108 -128 100 -276 -4 -97 -7 -109 -38 -156
-32 -51 -128 -131 -179 -151 -44 -17 -191 -10 -262 12 -82 25 -116 58 -169
164 -43 86 -49 138 -28 238 33 155 105 234 249 274 62 17 91 17 174 -3z m385
-112 c1 -19 -2 -31 -6 -27 -10 10 -23 129 -15 141 7 11 20 -59 21 -114z m188
77 c-3 -7 -5 -2 -5 12 0 14 2 19 5 13 2 -7 2 -19 0 -25z m10 -50 c-3 -7 -5 -2
-5 12 0 14 2 19 5 13 2 -7 2 -19 0 -25z m598 -93 c15 -55 58 -221 96 -370 38
-148 81 -305 94 -348 28 -87 32 -120 9 -67 -34 76 -234 830 -234 880 0 27 9 3
35 -95z m-748 63 c-3 -8 -6 -5 -6 6 -1 11 2 17 5 13 3 -3 4 -12 1 -19z m160
-30 c-3 -7 -5 -2 -5 12 0 14 2 19 5 13 2 -7 2 -19 0 -25z m-150 -30 c-3 -7 -5
-2 -5 12 0 14 2 19 5 13 2 -7 2 -19 0 -25z m279 -218 c8 -63 17 -129 20 -147
5 -28 2 -33 -25 -47 l-31 -17 1 228 c2 242 0 243 35 -17z m-119 198 c-3 -8 -6
-5 -6 6 -1 11 2 17 5 13 3 -3 4 -12 1 -19z m-204 -25 c11 -68 20 -193 14 -193
-3 0 -10 39 -17 88 -6 48 -14 99 -16 115 -2 15 0 27 5 27 4 0 11 -17 14 -37z
m-1817 -51 c-11 -10 -14 3 -7 38 l6 35 3 -33 c2 -19 1 -36 -2 -40z m1871 46
c-3 -8 -6 -5 -6 6 -1 11 2 17 5 13 3 -3 4 -12 1 -19z m160 -30 c-3 -7 -5 -2
-5 12 0 14 2 19 5 13 2 -7 2 -19 0 -25z m-150 -20 c-3 -7 -5 -2 -5 12 0 14 2
19 5 13 2 -7 2 -19 0 -25z m10 -50 c-3 -8 -6 -5 -6 6 -1 11 2 17 5 13 3 -3 4
-12 1 -19z m26 -103 c4 -25 4 -33 -2 -20 -4 11 -11 38 -14 60 -4 25 -4 33 2
20 4 -11 11 -38 14 -60z m134 23 c-3 -7 -5 -2 -5 12 0 14 2 19 5 13 2 -7 2
-19 0 -25z m-2040 -80 c-2 -13 -4 -5 -4 17 -1 22 1 32 4 23 2 -10 2 -28 0 -40z
m2050 0 c-3 -7 -5 -2 -5 12 0 14 2 19 5 13 2 -7 2 -19 0 -25z m-118 -38 c0 -9
-4 -8 -9 5 -5 11 -9 27 -9 35 0 9 4 8 9 -5 5 -11 9 -27 9 -35z m128 -22 c-3
-7 -5 -2 -5 12 0 14 2 19 5 13 2 -7 2 -19 0 -25z m-2050 -20 c-3 -8 -6 -5 -6
6 -1 11 2 17 5 13 3 -3 4 -12 1 -19z m1930 0 c-3 -8 -6 -5 -6 6 -1 11 2 17 5
13 3 -3 4 -12 1 -19z m130 -40 c-3 -8 -6 -5 -6 6 -1 11 2 17 5 13 3 -3 4 -12
1 -19z m-2087 -28 c0 -5 -5 -10 -11 -10 -5 0 -7 5 -4 10 3 6 8 10 11 10 2 0 4
-4 4 -10z m37 -12 c-3 -8 -6 -5 -6 6 -1 11 2 17 5 13 3 -3 4 -12 1 -19z m1911
-9 c-5 -4 -7 -17 -4 -30 6 -20 5 -21 -4 -7 -6 10 -8 29 -4 44 5 18 9 22 15 13
4 -8 3 -16 -3 -20z m66 -69 c5 -20 3 -19 -8 5 -7 17 -16 41 -20 55 -5 20 -3
19 8 -5 7 -16 16 -41 20 -55z m83 48 c-3 -7 -5 -2 -5 12 0 14 2 19 5 13 2 -7
2 -19 0 -25z m390 -30 c-3 -8 -6 -5 -6 6 -1 11 2 17 5 13 3 -3 4 -12 1 -19z
m-380 -20 c-3 -8 -6 -5 -6 6 -1 11 2 17 5 13 3 -3 4 -12 1 -19z m200 0 c-3 -8
-6 -5 -6 6 -1 11 2 17 5 13 3 -3 4 -12 1 -19z m-2250 -30 c-3 -8 -6 -5 -6 6
-1 11 2 17 5 13 3 -3 4 -12 1 -19z m2440 -20 c-3 -7 -5 -2 -5 12 0 14 2 19 5
13 2 -7 2 -19 0 -25z m-489 -33 c1 -22 5 -51 8 -65 6 -23 7 -23 13 -6 7 19 8
19 13 -2 4 -12 2 -20 -3 -16 -5 3 -9 0 -9 -6 0 -7 -6 -5 -15 4 -10 10 -16 35
-16 70 -1 42 -5 56 -18 60 -11 3 -10 4 4 3 16 -2 21 -11 23 -42z m122 -4 c0
-32 -6 -24 -14 19 -4 25 -3 31 4 20 5 -8 10 -26 10 -39z m187 -33 c-2 -13 -4
-3 -4 22 0 25 2 35 4 23 2 -13 2 -33 0 -45z m190 10 c-3 -8 -6 -5 -6 6 -1 11
2 17 5 13 3 -3 4 -12 1 -19z m-370 -55 c-3 -10 -5 -2 -5 17 0 19 2 27 5 18 2
-10 2 -26 0 -35z m-2060 15 c-3 -8 -6 -5 -6 6 -1 11 2 17 5 13 3 -3 4 -12 1
-19z m2643 12 c0 -5 -2 -10 -4 -10 -3 0 -8 5 -11 10 -3 6 -1 10 4 10 6 0 11
-4 11 -10z m-203 -52 c-3 -7 -5 -2 -5 12 0 14 2 19 5 13 2 -7 2 -19 0 -25z
m210 10 c-3 -8 -6 -5 -6 6 -1 11 2 17 5 13 3 -3 4 -12 1 -19z m-870 -265 c-1
-54 -3 -12 -3 92 0 105 2 149 3 98 2 -51 2 -136 0 -190z m-1770 245 c-3 -8 -6
-5 -6 6 -1 11 2 17 5 13 3 -3 4 -12 1 -19z m2240 -45 c-2 -16 -4 -5 -4 22 0
28 2 40 4 28 2 -13 2 -35 0 -50z m-252 -8 c2 -26 0 -44 -4 -39 -12 13 -21 108
-9 96 5 -5 11 -31 13 -57z m-328 23 c-3 -7 -5 -2 -5 12 0 14 2 19 5 13 2 -7 2
-19 0 -25z m1002 -8 c0 -10 -3 -8 -9 5 -12 27 -12 43 0 25 5 -8 9 -22 9 -30z
m-602 -7 c-3 -10 -5 -4 -5 12 0 17 2 24 5 18 2 -7 2 -21 0 -30z m-2050 -15
c-3 -8 -6 -5 -6 6 -1 11 2 17 5 13 3 -3 4 -12 1 -19z m2430 0 c-3 -8 -6 -5 -6
6 -1 11 2 17 5 13 3 -3 4 -12 1 -19z m-423 -24 c3 -8 2 -12 -4 -9 -6 3 -10 10
-10 16 0 14 7 11 14 -7z m53 -26 c-3 -7 -5 -2 -5 12 0 14 2 19 5 13 2 -7 2
-19 0 -25z m-420 -15 c-3 -10 -5 -4 -5 12 0 17 2 24 5 18 2 -7 2 -21 0 -30z
m-1630 -5 c-3 -7 -5 -2 -5 12 0 14 2 19 5 13 2 -7 2 -19 0 -25z m2230 -30 c-2
-13 -4 -3 -4 22 0 25 2 35 4 23 2 -13 2 -33 0 -45z m200 30 c-3 -7 -5 -2 -5
12 0 14 2 19 5 13 2 -7 2 -19 0 -25z m-407 1 c0 -6 -4 -7 -10 -4 -5 3 -10 1
-10 -6 0 -7 -2 -10 -5 -7 -9 8 6 38 16 32 5 -3 9 -10 9 -15z m-1863 -21 c-3
-7 -5 -2 -5 12 0 14 2 19 5 13 2 -7 2 -19 0 -25z m2533 -23 c0 -5 -5 -3 -10 5
-5 8 -10 20 -10 25 0 6 5 3 10 -5 5 -8 10 -19 10 -25z m-253 -12 c-3 -10 -5
-4 -5 12 0 17 2 24 5 18 2 -7 2 -21 0 -30z m-2430 -5 c-3 -7 -5 -2 -5 12 0 14
2 19 5 13 2 -7 2 -19 0 -25z m160 -15 c-3 -10 -5 -4 -5 12 0 17 2 24 5 18 2
-7 2 -21 0 -30z m1450 -10 c-3 -10 -5 -2 -5 17 0 19 2 27 5 18 2 -10 2 -26 0
-35z m447 1 c3 -26 6 -61 5 -78 -1 -28 -2 -28 -9 9 -15 83 -19 115 -11 115 5
0 11 -21 15 -46z m-2047 -31 c-3 -10 -5 -4 -5 12 0 17 2 24 5 18 2 -7 2 -21 0
-30z m1630 0 c-3 -10 -5 -4 -5 12 0 17 2 24 5 18 2 -7 2 -21 0 -30z m800 -10
c-3 -10 -5 -4 -5 12 0 17 2 24 5 18 2 -7 2 -21 0 -30z m282 -18 c0 -5 -6 1
-14 15 -8 14 -14 30 -14 35 0 6 6 -1 14 -15 8 -14 14 -29 14 -35z m-492 -2
c-3 -10 -5 -2 -5 17 0 19 2 27 5 18 2 -10 2 -26 0 -35z m-2060 5 c-3 -7 -5 -2
-5 12 0 14 2 19 5 13 2 -7 2 -19 0 -25z m1430 -35 c-3 -10 -5 -2 -5 17 0 19 2
27 5 18 2 -10 2 -26 0 -35z m90 -225 c-1 -51 -3 -10 -3 92 0 102 2 143 3 93 2
-51 2 -135 0 -185z m270 175 c-2 -21 -4 -6 -4 32 0 39 2 55 4 38 2 -18 2 -50
0 -70z m-1940 50 c-3 -10 -5 -4 -5 12 0 17 2 24 5 18 2 -7 2 -21 0 -30z m160
-20 c-3 -10 -5 -4 -5 12 0 17 2 24 5 18 2 -7 2 -21 0 -30z m2557 21 c3 -8 2
-12 -4 -9 -6 3 -10 10 -10 16 0 14 7 11 14 -7z m-287 -26 c-3 -7 -5 -2 -5 12
0 14 2 19 5 13 2 -7 2 -19 0 -25z m-210 -40 c-2 -13 -4 -5 -4 17 -1 22 1 32 4
23 2 -10 2 -28 0 -40z m-2210 0 c-3 -7 -5 -2 -5 12 0 14 2 19 5 13 2 -7 2 -19
0 -25z m1560 -5 c-3 -10 -5 -4 -5 12 0 17 2 24 5 18 2 -7 2 -21 0 -30z m40 5
c-3 -7 -5 -2 -5 12 0 14 2 19 5 13 2 -7 2 -19 0 -25z m270 -185 c-1 -43 -3
-10 -3 72 0 83 2 118 3 78 2 -40 2 -107 0 -150z m867 191 c3 -8 2 -12 -4 -9
-6 3 -10 10 -10 16 0 14 7 11 14 -7z m-2577 -26 c-3 -7 -5 -2 -5 12 0 14 2 19
5 13 2 -7 2 -19 0 -25z m1880 0 c-3 -7 -5 -2 -5 12 0 14 2 19 5 13 2 -7 2 -19
0 -25z m390 0 c-3 -7 -5 -2 -5 12 0 14 2 19 5 13 2 -7 2 -19 0 -25z m-2050
-15 c-3 -10 -5 -4 -5 12 0 17 2 24 5 18 2 -7 2 -21 0 -30z m-370 -25 c-3 -7
-5 -2 -5 12 0 14 2 19 5 13 2 -7 2 -19 0 -25z m2210 -5 c-3 -10 -5 -4 -5 12 0
17 2 24 5 18 2 -7 2 -21 0 -30z m-2050 -20 c-3 -10 -5 -4 -5 12 0 17 2 24 5
18 2 -7 2 -21 0 -30z m1380 -10 c-3 -10 -5 -2 -5 17 0 19 2 27 5 18 2 -10 2
-26 0 -35z m40 -5 c-2 -13 -4 -5 -4 17 -1 22 1 32 4 23 2 -10 2 -28 0 -40z
m130 -40 c-2 -18 -4 -4 -4 32 0 36 2 50 4 33 2 -18 2 -48 0 -65z m330 55 c-3
-10 -5 -4 -5 12 0 17 2 24 5 18 2 -7 2 -21 0 -30z m390 0 c-3 -10 -5 -4 -5 12
0 17 2 24 5 18 2 -7 2 -21 0 -30z m-500 -35 c-2 -13 -4 -5 -4 17 -1 22 1 32 4
23 2 -10 2 -28 0 -40z m-1920 -5 c-3 -10 -5 -2 -5 17 0 19 2 27 5 18 2 -10 2
-26 0 -35z m2210 5 c-3 -7 -5 -2 -5 12 0 14 2 19 5 13 2 -7 2 -19 0 -25z
m-2039 -103 c0 -22 -3 -18 -9 15 -4 25 -7 59 -7 75 0 22 3 18 9 -15 4 -25 7
-58 7 -75z m2259 83 c-3 -7 -5 -2 -5 12 0 14 2 19 5 13 2 -7 2 -19 0 -25z
m-390 -25 c-3 -10 -5 -2 -5 17 0 19 2 27 5 18 2 -10 2 -26 0 -35z m-520 0 c-3
-10 -5 -4 -5 12 0 17 2 24 5 18 2 -7 2 -21 0 -30z m700 -5 c-3 -7 -5 -2 -5 12
0 14 2 19 5 13 2 -7 2 -19 0 -25z m-2210 -15 c-3 -10 -5 -4 -5 12 0 17 2 24 5
18 2 -7 2 -21 0 -30z m1550 -10 c-3 -10 -5 -2 -5 17 0 19 2 27 5 18 2 -10 2
-26 0 -35z m-1190 -15 c-2 -13 -4 -5 -4 17 -1 22 1 32 4 23 2 -10 2 -28 0 -40z
m2081 -28 c0 -22 -1 -22 -8 5 -4 17 -8 41 -8 55 0 22 1 22 8 -5 4 -16 8 -41 8
-55z m-521 23 c-3 -10 -5 -2 -5 17 0 19 2 27 5 18 2 -10 2 -26 0 -35z m-2037
17 c0 -5 -5 -10 -11 -10 -5 0 -7 5 -4 10 3 6 8 10 11 10 2 0 4 -4 4 -10z
m1817 -57 c-2 -16 -4 -5 -4 22 0 28 2 40 4 28 2 -13 2 -35 0 -50z m520 45 c-3
-8 -6 -5 -6 6 -1 11 2 17 5 13 3 -3 4 -12 1 -19z m-1810 -20 c-3 -7 -5 -2 -5
12 0 14 2 19 5 13 2 -7 2 -19 0 -25z m1090 -5 c-3 -10 -5 -4 -5 12 0 17 2 24
5 18 2 -7 2 -21 0 -30z m540 0 c-3 -10 -5 -4 -5 12 0 17 2 24 5 18 2 -7 2 -21
0 -30z m-2030 -20 c-3 -10 -5 -2 -5 17 0 19 2 27 5 18 2 -10 2 -26 0 -35z
m2220 5 c-3 -8 -6 -5 -6 6 -1 11 2 17 5 13 3 -3 4 -12 1 -19z m-690 -20 c-3
-7 -5 -2 -5 12 0 14 2 19 5 13 2 -7 2 -19 0 -25z m390 -15 c-3 -10 -5 -4 -5
12 0 17 2 24 5 18 2 -7 2 -21 0 -30z m-440 -10 c-3 -10 -5 -4 -5 12 0 17 2 24
5 18 2 -7 2 -21 0 -30z m560 0 c-3 -10 -5 -4 -5 12 0 17 2 24 5 18 2 -7 2 -21
0 -30z m-1880 -25 c-2 -13 -4 -5 -4 17 -1 22 1 32 4 23 2 -10 2 -28 0 -40z
m200 15 c-3 -10 -5 -4 -5 12 0 17 2 24 5 18 2 -7 2 -21 0 -30z m2080 15 c-3
-8 -6 -5 -6 6 -1 11 2 17 5 13 3 -3 4 -12 1 -19z m403 -23 c0 -5 -5 -3 -10 5
-5 8 -10 20 -10 25 0 6 5 3 10 -5 5 -8 10 -19 10 -25z m126 -170 c176 -385
197 -433 255 -579 33 -82 58 -153 57 -158 -5 -15 -111 145 -167 253 -27 52
-72 153 -99 224 -50 130 -156 473 -141 458 4 -4 47 -93 95 -198z m-2559 163
c-3 -7 -5 -2 -5 12 0 14 2 19 5 13 2 -7 2 -19 0 -25z m-400 -10 c-3 -7 -5 -2
-5 12 0 14 2 19 5 13 2 -7 2 -19 0 -25z m1620 -30 c-2 -13 -4 -5 -4 17 -1 22
1 32 4 23 2 -10 2 -28 0 -40z m300 20 c-3 -7 -5 -2 -5 12 0 14 2 19 5 13 2 -7
2 -19 0 -25z m520 10 c-3 -8 -6 -5 -6 6 -1 11 2 17 5 13 3 -3 4 -12 1 -19z
m-930 -10 c-3 -8 -6 -5 -6 6 -1 11 2 17 5 13 3 -3 4 -12 1 -19z m530 -15 c-3
-10 -5 -4 -5 12 0 17 2 24 5 18 2 -7 2 -21 0 -30z m-580 -5 c-3 -7 -5 -2 -5
12 0 14 2 19 5 13 2 -7 2 -19 0 -25z m230 -60 c-2 -18 -4 -4 -4 32 0 36 2 50
4 33 2 -18 2 -48 0 -65z m1091 67 c-3 -3 -9 2 -12 12 -6 14 -5 15 5 6 7 -7 10
-15 7 -18z m72 -10 c0 -5 -5 -3 -10 5 -5 8 -10 20 -10 25 0 6 5 3 10 -5 5 -8
10 -19 10 -25z m-2688 -25 c2 -22 0 -40 -4 -40 -5 0 -8 18 -8 40 0 22 2 40 4
40 2 0 6 -18 8 -40z m195 8 c-3 -7 -5 -2 -5 12 0 14 2 19 5 13 2 -7 2 -19 0
-25z m2090 10 c-3 -8 -6 -5 -6 6 -1 11 2 17 5 13 3 -3 4 -12 1 -19z m-2440
-45 c-3 -10 -5 -2 -5 17 0 19 2 27 5 18 2 -10 2 -26 0 -35z m400 25 c-3 -8 -6
-5 -6 6 -1 11 2 17 5 13 3 -3 4 -12 1 -19z m1420 -25 c-3 -10 -5 -2 -5 17 0
19 2 27 5 18 2 -10 2 -26 0 -35z m100 15 c-3 -7 -5 -2 -5 12 0 14 2 19 5 13 2
-7 2 -19 0 -25z m957 -48 c3 -14 -3 -7 -13 15 -11 22 -20 45 -20 50 0 15 26
-37 33 -65z m-1437 28 c-3 -7 -5 -2 -5 12 0 14 2 19 5 13 2 -7 2 -19 0 -25z
m600 0 c-3 -7 -5 -2 -5 12 0 14 2 19 5 13 2 -7 2 -19 0 -25z m410 10 c-3 -8
-6 -5 -6 6 -1 11 2 17 5 13 3 -3 4 -12 1 -19z m-960 -10 c-3 -8 -6 -5 -6 6 -1
11 2 17 5 13 3 -3 4 -12 1 -19z m-1130 -20 c-3 -7 -5 -2 -5 12 0 14 2 19 5 13
2 -7 2 -19 0 -25z m50 -10 c-3 -8 -6 -5 -6 6 -1 11 2 17 5 13 3 -3 4 -12 1
-19z m2062 -28 c0 -9 -4 -8 -9 5 -5 11 -9 27 -9 35 0 9 4 8 9 -5 5 -11 9 -27
9 -35z m-2462 -12 c-2 -13 -4 -5 -4 17 -1 22 1 32 4 23 2 -10 2 -28 0 -40z
m1610 0 c-2 -13 -4 -5 -4 17 -1 22 1 32 4 23 2 -10 2 -28 0 -40z m430 20 c-3
-7 -5 -2 -5 12 0 14 2 19 5 13 2 -7 2 -19 0 -25z m-1890 -25 c-3 -10 -5 -2 -5
17 0 19 2 27 5 18 2 -10 2 -26 0 -35z m1660 -75 c-2 -24 -4 -5 -4 42 0 47 2
66 4 43 2 -24 2 -62 0 -85z m-1450 90 c-3 -8 -6 -5 -6 6 -1 11 2 17 5 13 3 -3
4 -12 1 -19z m1110 0 c-3 -8 -6 -5 -6 6 -1 11 2 17 5 13 3 -3 4 -12 1 -19z
m-50 -10 c-3 -8 -6 -5 -6 6 -1 11 2 17 5 13 3 -3 4 -12 1 -19z m510 -10 c-3
-7 -5 -2 -5 12 0 14 2 19 5 13 2 -7 2 -19 0 -25z m903 -3 c0 -5 -5 -3 -10 5
-5 8 -10 20 -10 25 0 6 5 3 10 -5 5 -8 10 -19 10 -25z m-2423 3 c-3 -8 -6 -5
-6 6 -1 11 2 17 5 13 3 -3 4 -12 1 -19z m1270 -60 c-2 -18 -4 -6 -4 27 0 33 2
48 4 33 2 -15 2 -42 0 -60z m610 60 c-3 -8 -6 -5 -6 6 -1 11 2 17 5 13 3 -3 4
-12 1 -19z m603 -13 c0 -5 -5 -3 -10 5 -5 8 -10 20 -10 25 0 6 5 3 10 -5 5 -8
10 -19 10 -25z m-832 -40 c0 -16 -2 -15 -8 5 -4 14 -8 34 -8 45 0 16 2 15 8
-5 4 -14 8 -34 8 -45z m-601 23 c-3 -8 -6 -5 -6 6 -1 11 2 17 5 13 3 -3 4 -12
1 -19z m480 -10 c-3 -8 -6 -5 -6 6 -1 11 2 17 5 13 3 -3 4 -12 1 -19z m-1780
-55 c-2 -16 -4 -5 -4 22 0 28 2 40 4 28 2 -13 2 -35 0 -50z m1250 45 c-3 -8
-6 -5 -6 6 -1 11 2 17 5 13 3 -3 4 -12 1 -19z m-1400 -45 c-3 -10 -5 -2 -5 17
0 19 2 27 5 18 2 -10 2 -26 0 -35z m1610 0 c-3 -10 -5 -2 -5 17 0 19 2 27 5
18 2 -10 2 -26 0 -35z m-170 15 c-3 -8 -6 -5 -6 6 -1 11 2 17 5 13 3 -3 4 -12
1 -19z m500 0 c-3 -8 -6 -5 -6 6 -1 11 2 17 5 13 3 -3 4 -12 1 -19z m120 -20
c-3 -8 -6 -5 -6 6 -1 11 2 17 5 13 3 -3 4 -12 1 -19z m-98 -48 c0 -9 -4 -8 -9
5 -5 11 -9 27 -9 35 0 9 4 8 9 -5 5 -11 9 -27 9 -35z m548 -15 c7 -21 12 -43
10 -48 -2 -6 -9 10 -17 34 -8 24 -19 48 -25 52 -6 5 -5 7 4 5 8 -2 20 -22 28
-43z m-440 13 c-3 -8 -6 -5 -6 6 -1 11 2 17 5 13 3 -3 4 -12 1 -19z m-2060
-20 c-3 -7 -5 -2 -5 12 0 14 2 19 5 13 2 -7 2 -19 0 -25z m2884 6 c5 -15 8
-29 5 -31 -2 -2 -8 10 -14 26 -13 38 -5 41 9 5z m-1214 -81 c-2 -21 -4 -6 -4
32 0 39 2 55 4 38 2 -18 2 -50 0 -70z m400 55 c-3 -8 -6 -5 -6 6 -1 11 2 17 5
13 3 -3 4 -12 1 -19z m-270 -131 c-2 -23 -3 -1 -3 48 0 50 1 68 3 42 2 -26 2
-67 0 -90z m280 91 c-3 -8 -6 -5 -6 6 -1 11 2 17 5 13 3 -3 4 -12 1 -19z m-61
-112 c75 -193 176 -359 305 -500 59 -66 54 -65 -35 3 -126 96 -252 253 -315
392 -24 53 -81 212 -81 225 0 2 21 -4 46 -14 45 -18 47 -21 80 -106z m543 -3
c1 -13 6 -23 11 -23 6 0 9 -3 8 -7 -1 -5 12 -36 29 -70 17 -35 28 -63 25 -63
-4 0 -2 -4 3 -8 10 -7 16 -17 64 -105 40 -73 91 -155 202 -319 95 -141 124
-188 115 -188 -2 0 -17 21 -32 48 -25 42 -121 177 -195 274 -16 20 -34 48 -40
62 -7 14 -16 23 -22 19 -6 -3 -7 -1 -3 5 3 6 -1 17 -9 25 -8 9 -15 19 -15 23
0 4 -6 15 -14 23 -22 27 -136 260 -136 280 0 5 -6 16 -14 23 -7 8 -16 25 -20
38 -6 20 -5 22 4 10 9 -12 10 -10 5 10 -15 59 -13 62 9 15 14 -27 25 -60 25
-72z m-210 57 c0 -9 -4 -8 -9 5 -5 11 -9 27 -9 35 0 9 4 8 9 -5 5 -11 9 -27 9
-35z m-262 18 c-3 -8 -6 -5 -6 6 -1 11 2 17 5 13 3 -3 4 -12 1 -19z m244 -128
c32 -16 59 -26 59 -23 0 19 46 -41 82 -106 96 -178 165 -273 350 -483 76 -86
143 -160 148 -163 6 -3 10 -11 10 -17 0 -7 -4 -7 -12 0 -7 5 -43 26 -80 45
-245 129 -499 359 -664 602 -43 63 -134 229 -134 245 0 9 133 -46 241 -100z
m609 75 c0 -5 -5 -3 -10 5 -5 8 -10 20 -10 25 0 6 5 3 10 -5 5 -8 10 -19 10
-25z m-1263 -72 c-2 -21 -4 -6 -4 32 0 39 2 55 4 38 2 -18 2 -50 0 -70z m1307
-53 c5 -20 3 -19 -8 5 -7 17 -16 41 -20 55 -5 20 -3 19 8 -5 7 -16 16 -41 20
-55z m-1177 -17 c-2 -16 -4 -5 -4 22 0 28 2 40 4 28 2 -13 2 -35 0 -50z m-70
-35 c-3 -7 -5 -2 -5 12 0 14 2 19 5 13 2 -7 2 -19 0 -25z m1273 -23 c0 -5 -5
-3 -10 5 -5 8 -10 20 -10 25 0 6 5 3 10 -5 5 -8 10 -19 10 -25z m-1193 -77
c-2 -13 -4 -3 -4 22 0 25 2 35 4 23 2 -13 2 -33 0 -45z m810 -46 c159 -191
210 -255 256 -318 26 -37 47 -68 45 -69 -8 -8 -124 111 -190 195 -97 124 -212
291 -196 284 7 -3 45 -44 85 -92z m-875 15 c2 -35 0 -43 -14 -44 -11 -1 -18 5
-18 15 0 15 2 15 10 2 7 -11 10 -4 10 28 0 23 -4 42 -10 42 -5 0 -10 5 -10 11
0 8 4 8 14 0 8 -7 16 -31 18 -54z m1294 -2 c9 -39 0 -30 -15 15 -6 19 -7 30
-2 25 5 -6 13 -23 17 -40z m186 -141 c25 -34 50 -87 73 -155 l34 -104 -29 34
c-30 35 -181 323 -195 371 -4 15 10 0 35 -35 24 -33 61 -83 82 -111z m-1405
74 c-2 -13 -4 -5 -4 17 -1 22 1 32 4 23 2 -10 2 -28 0 -40z m10 -85 c-3 -10
-5 -4 -5 12 0 17 2 24 5 18 2 -7 2 -21 0 -30z m1282 -92 c0 -9 -7 0 -14 19
-18 47 -18 74 0 31 8 -18 15 -41 14 -50z m-1272 7 c-2 -13 -4 -5 -4 17 -1 22
1 32 4 23 2 -10 2 -28 0 -40z m553 2 c0 -5 -2 -10 -4 -10 -3 0 -8 5 -11 10 -3
6 -1 10 4 10 6 0 11 -4 11 -10z m42 -29 c-9 -5 -7 -13 8 -29 12 -12 16 -22 11
-22 -5 0 -19 13 -30 28 l-19 28 21 1 c14 2 17 -1 9 -6z m-585 -48 c-3 -10 -5
-2 -5 17 0 19 2 27 5 18 2 -10 2 -26 0 -35z m1270 25 c-3 -8 -6 -5 -6 6 -1 11
2 17 5 13 3 -3 4 -12 1 -19z m343 -156 c71 -95 188 -297 177 -308 -8 -8 -233
232 -249 267 -9 19 -30 77 -47 129 l-30 95 36 -40 c19 -22 70 -86 113 -143z
m-968 138 c18 -17 61 -49 95 -71 35 -23 60 -45 57 -50 -3 -5 3 -6 12 -2 11 4
15 3 10 -5 -3 -6 -2 -13 4 -17 5 -3 10 -2 10 4 0 6 7 8 15 5 8 -4 15 -14 15
-23 0 -9 3 -12 8 -6 4 6 22 2 49 -11 32 -16 39 -24 30 -33 -9 -9 -8 -11 5 -6
9 4 26 1 39 -5 18 -10 19 -14 8 -22 -11 -8 -10 -8 4 -4 21 7 61 -17 49 -29 -4
-5 -1 -5 5 -1 13 7 102 -52 103 -69 0 -5 -5 -4 -12 3 -7 7 -17 12 -22 12 -6
-1 0 -10 13 -20 31 -27 19 -25 -24 3 -24 15 -33 27 -29 40 3 9 0 17 -6 17 -6
0 -8 -4 -5 -10 11 -18 -9 -9 -70 30 -33 22 -86 52 -117 68 -31 16 -77 44 -103
61 -25 17 -48 31 -51 31 -6 0 -59 37 -91 64 -13 11 -23 27 -23 36 0 9 -5 21
-12 28 -26 26 3 10 34 -18z m635 -22 c-3 -8 -6 -5 -6 6 -1 11 2 17 5 13 3 -3
4 -12 1 -19z m-1270 -55 c-3 -10 -5 -2 -5 17 0 19 2 27 5 18 2 -10 2 -26 0
-35z m1302 -33 c0 -10 -3 -8 -9 5 -12 27 -12 43 0 25 5 -8 9 -22 9 -30z m51
20 c6 -11 8 -20 6 -20 -3 0 -10 9 -16 20 -6 11 -8 20 -6 20 3 0 10 -9 16 -20z
m-1343 -47 c-3 -10 -5 -4 -5 12 0 17 2 24 5 18 2 -7 2 -21 0 -30z m1447 -120
c4 -7 5 -13 2 -13 -6 0 -86 127 -86 137 0 7 43 -57 84 -124z m-125 37 c0 -10
-3 -8 -9 5 -12 27 -12 43 0 25 5 -8 9 -22 9 -30z m-161 -5 c-3 -3 -9 2 -12 12
-6 14 -5 15 5 6 7 -7 10 -15 7 -18z m27 -46 c9 -17 15 -33 13 -35 -3 -2 -12
12 -21 31 -21 43 -13 47 8 4z m154 -19 c0 -9 -4 -8 -9 5 -5 11 -9 27 -9 35 0
9 4 8 9 -5 5 -11 9 -27 9 -35z m135 -6 c3 -8 2 -12 -4 -9 -6 3 -10 10 -10 16
0 14 7 11 14 -7z m-127 -36 c-3 -8 -6 -5 -6 6 -1 11 2 17 5 13 3 -3 4 -12 1
-19z m151 -13 c-3 -3 -9 2 -12 12 -6 14 -5 15 5 6 7 -7 10 -15 7 -18z m-310
-10 c-3 -3 -9 2 -12 12 -6 14 -5 15 5 6 7 -7 10 -15 7 -18z m33 -73 c-5 -2 -7
-11 -4 -20 6 -15 5 -15 -11 -3 -9 8 -15 20 -12 26 2 7 0 18 -6 26 -8 11 -9 10
-4 -4 5 -15 2 -16 -14 -7 -26 14 -39 36 -16 27 14 -6 17 -3 12 10 -4 10 9 3
29 -17 20 -19 31 -36 26 -38z m30 16 c8 -15 8 -18 0 -14 -6 4 -16 16 -22 28
-8 15 -8 18 0 14 6 -4 16 -16 22 -28z m371 -97 c71 -107 140 -234 152 -281 4
-14 -15 20 -42 75 -27 55 -83 151 -125 213 -42 62 -72 110 -66 106 6 -3 42
-54 81 -113z m-123 14 c0 -5 -8 6 -19 25 -11 19 -19 40 -19 45 0 6 8 -6 19
-25 11 -19 19 -39 19 -45z m-1401 30 c-3 -3 -9 2 -12 12 -6 14 -5 15 5 6 7 -7
10 -15 7 -18z m1147 16 c3 -5 2 -12 -3 -15 -5 -3 -9 1 -9 9 0 17 3 19 12 6z
m154 -51 c0 -9 -4 -8 -9 5 -5 11 -9 27 -9 35 0 9 4 8 9 -5 5 -11 9 -27 9 -35z
m-33 -89 c20 -36 49 -100 65 -141 17 -42 27 -60 23 -40 -11 59 4 29 20 -43 18
-78 21 -110 7 -88 -5 7 -11 9 -14 4 -3 -5 -2 -15 4 -23 5 -8 8 -28 8 -45 -1
-26 -3 -24 -13 15 -7 25 -9 50 -4 56 12 17 -56 204 -104 284 -5 8 -11 23 -14
33 -4 9 -10 17 -15 17 -5 0 -9 7 -9 15 0 8 -4 15 -10 15 -5 0 -10 7 -10 16 0
28 27 -2 66 -75z m52 4 c0 -16 -2 -15 -8 5 -11 34 -11 60 0 35 5 -11 8 -29 8
-40z m-1261 -27 c7 -16 11 -28 9 -28 -8 0 -36 58 -35 72 0 9 2 8 6 -2 3 -8 12
-27 20 -42z m1281 -53 c0 -16 -2 -15 -8 5 -11 34 -11 60 0 35 5 -11 8 -29 8
-40z m-1164 -170 l18 -30 -20 25 c-23 28 -102 172 -102 186 0 5 20 -27 43 -71
24 -44 51 -93 61 -110z m1096 100 c17 -25 29 -45 26 -45 -3 0 -19 20 -36 45
-17 25 -29 45 -26 45 3 0 19 -20 36 -45z m239 -15 c0 -10 -3 -8 -9 5 -12 27
-12 43 0 25 5 -8 9 -22 9 -30z m-185 -77 c9 -18 14 -33 12 -33 -6 0 -36 55
-36 66 0 11 5 3 24 -33z m376 -26 c0 -5 -4 -5 -10 -2 -5 3 -10 14 -10 23 0 15
2 15 10 2 5 -8 10 -19 10 -23z m-163 1 c-3 -8 -6 -5 -6 6 -1 11 2 17 5 13 3
-3 4 -12 1 -19z m-1302 -71 c20 -27 35 -51 32 -53 -3 -4 -54 63 -72 96 -12 23
-1 10 40 -43z m1252 31 c-3 -8 -6 -5 -6 6 -1 11 2 17 5 13 3 -3 4 -12 1 -19z
m60 -10 c-3 -7 -5 -2 -5 12 0 14 2 19 5 13 2 -7 2 -19 0 -25z m182 -35 c11
-37 18 -69 16 -71 -2 -2 -11 22 -21 54 -9 33 -19 65 -21 72 -3 6 -3 12 0 12 4
0 15 -30 26 -67z m-332 -15 c-3 -7 -5 -2 -5 12 0 14 2 19 5 13 2 -7 2 -19 0
-25z m160 0 c-3 -8 -6 -5 -6 6 -1 11 2 17 5 13 3 -3 4 -12 1 -19z m-50 -20
c-3 -8 -6 -5 -6 6 -1 11 2 17 5 13 3 -3 4 -12 1 -19z m-100 -30 c-3 -7 -5 -2
-5 12 0 14 2 19 5 13 2 -7 2 -19 0 -25z m160 -15 c-3 -10 -5 -4 -5 12 0 17 2
24 5 18 2 -7 2 -21 0 -30z m-180 -30 c-3 -10 -5 -2 -5 17 0 19 2 27 5 18 2
-10 2 -26 0 -35z m130 25 c-3 -8 -6 -5 -6 6 -1 11 2 17 5 13 3 -3 4 -12 1 -19z
m10 -40 c-3 -8 -6 -5 -6 6 -1 11 2 17 5 13 3 -3 4 -12 1 -19z m50 -50 c-2 -13
-4 -3 -4 22 0 25 2 35 4 23 2 -13 2 -33 0 -45z m204 -14 c17 -102 20 -131 5
-74 -17 68 -29 146 -21 138 3 -3 10 -32 16 -64z"/>
<path d="M1590 4540 c0 -5 7 -7 15 -4 8 4 15 8 15 10 0 2 -7 4 -15 4 -8 0 -15
-4 -15 -10z"/>
<path d="M1425 4462 c-139 -11 -146 -26 -18 -35 76 -6 198 -36 288 -73 33 -13
3 17 -60 60 -44 31 -68 40 -118 45 -34 3 -75 5 -92 3z"/>
<path d="M1395 4249 c16 -7 13 -8 -12 -5 -18 3 -35 1 -39 -5 -4 -7 -22 -9 -46
-5 -35 6 -38 5 -29 -12 6 -11 6 -24 0 -33 -20 -31 -7 -35 38 -13 32 17 63 24
100 24 l55 0 -36 -42 c-44 -51 -45 -64 -6 -71 17 -4 30 -11 30 -17 0 -5 -13
-10 -30 -10 -25 0 -30 -4 -30 -25 0 -61 62 -125 120 -125 73 0 121 58 122 146
l1 55 23 -22 c19 -18 24 -19 24 -7 0 9 -28 42 -63 74 -64 60 -137 97 -177 89
-11 -2 -20 0 -20 6 0 5 -10 9 -22 8 -22 0 -22 -1 -3 -10z"/>
<path d="M1275 4020 c19 -64 80 -111 144 -110 21 1 16 6 -30 30 -32 16 -71 46
-89 67 -27 32 -31 34 -25 13z"/>
<path d="M2337 4100 c-31 -9 -141 -89 -134 -96 3 -3 22 4 43 15 39 21 104 38
104 28 0 -2 -7 -18 -15 -33 -23 -45 -19 -64 13 -64 30 0 59 -15 46 -23 -5 -2
-26 -3 -46 -2 -37 3 -38 2 -38 -28 0 -44 19 -77 58 -103 26 -18 29 -23 15 -26
-23 -5 77 -28 121 -28 62 0 121 28 139 65 l16 34 -64 -35 c-36 -20 -65 -33
-65 -30 0 4 16 20 35 37 35 31 55 78 55 134 l1 30 45 -50 c39 -44 44 -47 38
-23 -5 23 -2 28 20 34 36 9 33 21 -7 28 -21 4 -52 24 -83 54 -78 77 -201 111
-297 82z"/>
<path d="M3841 1473 c0 -11 59 -56 65 -51 2 3 -11 17 -31 32 -19 15 -35 23
-34 19z"/>
<path d="M3930 1406 c0 -2 7 -7 16 -10 8 -3 12 -2 9 4 -6 10 -25 14 -25 6z"/>
<path d="M4170 1260 c0 -5 5 -10 10 -10 6 0 10 5 10 10 0 6 -4 10 -10 10 -5 0
-10 -4 -10 -10z"/>
<path d="M1470 5360 c0 -5 5 -10 11 -10 5 0 7 -4 4 -10 -11 -18 -35 -11 -28 8
5 13 3 14 -7 5 -7 -6 -12 -23 -12 -37 0 -23 -3 -25 -17 -14 -15 12 -15 11 -1
-6 14 -18 13 -19 -2 -13 -19 7 -34 -8 -19 -18 6 -3 29 11 53 32 24 20 44 38
46 39 1 1 0 9 -4 18 -7 17 -24 22 -24 6z"/>
<path d="M1380 5250 c0 -6 -4 -8 -10 -5 -5 3 -10 1 -10 -4 0 -13 27 -14 35 -2
3 5 1 12 -5 16 -5 3 -10 1 -10 -5z"/>
<path d="M1346 5205 c-16 -12 -17 -18 -8 -27 9 -9 12 -9 12 1 0 8 8 20 18 27
9 7 13 13 7 13 -5 0 -19 -6 -29 -14z"/>
<path d="M1285 5140 c-3 -5 -1 -10 4 -10 6 0 11 5 11 10 0 6 -2 10 -4 10 -3 0
-8 -4 -11 -10z"/>
<path d="M1265 5109 c-4 -6 -4 -13 -1 -16 3 -3 1 -12 -5 -20 -6 -7 -9 -13 -6
-13 3 0 15 14 27 30 17 24 18 30 6 30 -8 0 -18 -5 -21 -11z"/>
<path d="M1224 5032 c-6 -4 -21 -26 -32 -50 -14 -29 -16 -40 -6 -32 7 7 14 18
14 25 0 7 9 24 21 39 21 27 22 31 3 18z"/>
<path d="M1200 4941 c-14 -28 -13 -41 6 -41 9 0 14 6 11 13 -2 6 0 20 5 30 5
11 5 17 -1 17 -6 0 -15 -9 -21 -19z"/>
<path d="M1136 4864 c-4 -9 -4 -19 -1 -22 2 -3 7 3 11 12 4 9 4 19 1 22 -2 3
-7 -3 -11 -12z"/>
<path d="M1086 4752 c-3 -6 -1 -14 5 -17 15 -10 25 3 12 16 -7 7 -13 7 -17 1z"/>
<path d="M1056 4698 c-8 -42 -8 -48 5 -48 6 0 8 8 4 19 -3 11 1 25 9 34 13 12
13 16 2 20 -9 4 -16 -5 -20 -25z"/>
<path d="M1040 4604 c-9 -25 -9 -39 -2 -46 8 -8 9 -4 5 11 -3 12 -1 21 5 21 6
0 16 9 21 19 8 14 7 20 -4 24 -9 4 -18 -6 -25 -29z"/>
<path d="M1087 4603 c-4 -3 -7 -11 -7 -17 0 -6 5 -5 12 2 6 6 9 14 7 17 -3 3
-9 2 -12 -2z"/>
<path d="M1070 4518 c0 -36 4 -35 14 5 4 16 2 27 -4 27 -5 0 -10 -14 -10 -32z"/>
<path d="M1030 4531 c0 -5 5 -13 10 -16 6 -3 10 -2 10 4 0 5 -4 13 -10 16 -5
3 -10 2 -10 -4z"/>
<path d="M1020 4460 c0 -19 3 -21 12 -12 9 9 9 15 0 24 -9 9 -12 7 -12 -12z"/>
<path d="M1010 4323 c0 -21 3 -24 9 -14 5 8 7 20 4 28 -8 21 -13 15 -13 -14z"/>
<path d="M1031 3594 c0 -11 3 -14 6 -6 3 7 2 16 -1 19 -3 4 -6 -2 -5 -13z"/>
<path d="M1717 3369 c7 -7 15 -10 18 -7 3 3 -2 9 -12 12 -14 6 -15 5 -6 -5z"/>
<path d="M1785 3346 c17 -8 32 -12 34 -10 7 7 -3 12 -34 18 l-30 6 30 -14z"/>
<path d="M2080 3330 l-25 -8 28 -1 c15 -1 27 4 27 9 0 6 -1 10 -2 9 -2 -1 -14
-5 -28 -9z"/>
<path d="M1045 3252 c2 -40 6 -76 9 -79 8 -9 6 97 -4 127 -4 15 -6 -3 -5 -48z"/>
<path d="M1983 3313 c15 -2 37 -2 50 0 12 2 0 4 -28 4 -27 0 -38 -2 -22 -4z"/>
<path d="M1062 3100 c0 -19 2 -27 5 -17 2 9 2 25 0 35 -3 9 -5 1 -5 -18z"/>
<path d="M1060 3039 c0 -5 5 -7 10 -4 6 3 10 8 10 11 0 2 -4 4 -10 4 -5 0 -10
-5 -10 -11z"/>
<path d="M1186 2237 c-5 -15 -6 -31 -2 -34 11 -11 18 5 14 34 l-4 28 -8 -28z"/>
<path d="M3111 1584 c0 -11 3 -14 6 -6 3 7 2 16 -1 19 -3 4 -6 -2 -5 -13z"/>
<path d="M3121 1484 c0 -11 3 -14 6 -6 3 7 2 16 -1 19 -3 4 -6 -2 -5 -13z"/>
<path d="M3161 1324 c0 -11 3 -14 6 -6 3 7 2 16 -1 19 -3 4 -6 -2 -5 -13z"/>
<path d="M3180 1255 c0 -5 5 -17 10 -25 5 -8 10 -10 10 -5 0 6 -5 17 -10 25
-5 8 -10 11 -10 5z"/>
<path d="M3226 1127 c3 -10 9 -15 12 -12 3 3 0 11 -7 18 -10 9 -11 8 -5 -6z"/>
<path d="M5130 901 c0 -5 4 -11 8 -13 16 -6 143 -185 176 -248 48 -92 85 -200
99 -292 7 -43 17 -78 22 -78 17 1 6 110 -22 199 -42 141 -94 233 -207 369 -57
68 -76 84 -76 63z"/>
</g>
</svg>
